<?xml version="1.0" encoding="UTF-8" standalone="no"?>
<!-- Created with Inkscape (http://www.inkscape.org/) -->

<svg
   xmlns:dc="http://purl.org/dc/elements/1.1/"
   xmlns:cc="http://creativecommons.org/ns#"
   xmlns:rdf="http://www.w3.org/1999/02/22-rdf-syntax-ns#"
   xmlns:svg="http://www.w3.org/2000/svg"
   xmlns="http://www.w3.org/2000/svg"
   xmlns:sodipodi="http://sodipodi.sourceforge.net/DTD/sodipodi-0.dtd"
   xmlns:inkscape="http://www.inkscape.org/namespaces/inkscape"
   id="svg2"
   version="1.1"
   inkscape:version="0.48.4 r9939"
   width="810"
   height="495"
   xml:space="preserve"
   sodipodi:docname="Latex_Flowchart.pdf"><metadata
     id="metadata8"><rdf:RDF><cc:Work
         rdf:about=""><dc:format>image/svg+xml</dc:format><dc:type
           rdf:resource="http://purl.org/dc/dcmitype/StillImage" /><dc:title></dc:title></cc:Work></rdf:RDF></metadata><defs
     id="defs6"><clipPath
       clipPathUnits="userSpaceOnUse"
       id="clipPath400"><path
         d="m 520,195 c 2,0 5,-3 5,-5 0,-3 -3,-5 -5,-5 -3,0 -5,2 -5,5 0,2 2,5 5,5 z"
         id="path402"
         inkscape:connector-curvature="0" /></clipPath><clipPath
       clipPathUnits="userSpaceOnUse"
       id="clipPath420"><path
         d="m 320,325 c 2,0 5,-3 5,-5 0,-3 -3,-5 -5,-5 -3,0 -5,2 -5,5 0,2 2,5 5,5 z"
         id="path422"
         inkscape:connector-curvature="0" /></clipPath><clipPath
       clipPathUnits="userSpaceOnUse"
       id="clipPath608"><path
         d="m 740,285 c 2,0 5,-3 5,-5 0,-3 -3,-5 -5,-5 -3,0 -5,2 -5,5 0,2 2,5 5,5 z"
         id="path610"
         inkscape:connector-curvature="0" /></clipPath><clipPath
       clipPathUnits="userSpaceOnUse"
       id="clipPath628"><path
         d="m 740,385 c 2,0 5,-3 5,-5 0,-3 -3,-5 -5,-5 -3,0 -5,2 -5,5 0,2 2,5 5,5 z"
         id="path630"
         inkscape:connector-curvature="0" /></clipPath><clipPath
       clipPathUnits="userSpaceOnUse"
       id="clipPath1262"><path
         d="m 520,465 c 2,0 5,-3 5,-5 0,-3 -3,-5 -5,-5 -3,0 -5,2 -5,5 0,2 2,5 5,5 z"
         id="path1264"
         inkscape:connector-curvature="0" /></clipPath><clipPath
       clipPathUnits="userSpaceOnUse"
       id="clipPath1282"><path
         d="m 320,325 c 2,0 5,-3 5,-5 0,-3 -3,-5 -5,-5 -3,0 -5,2 -5,5 0,2 2,5 5,5 z"
         id="path1284"
         inkscape:connector-curvature="0" /></clipPath><clipPath
       clipPathUnits="userSpaceOnUse"
       id="clipPath1368"><path
         d="m 740,545 c 2,0 5,-3 5,-5 0,-3 -3,-5 -5,-5 -3,0 -5,2 -5,5 0,2 2,5 5,5 z"
         id="path1370"
         inkscape:connector-curvature="0" /></clipPath><clipPath
       clipPathUnits="userSpaceOnUse"
       id="clipPath1388"><path
         d="m 740,625 c 2,0 5,-3 5,-5 0,-3 -3,-5 -5,-5 -3,0 -5,2 -5,5 0,2 2,5 5,5 z"
         id="path1390"
         inkscape:connector-curvature="0" /></clipPath><clipPath
       clipPathUnits="userSpaceOnUse"
       id="clipPath2226"><path
         d="m 740,745 c 2,0 5,-3 5,-5 0,-3 -3,-5 -5,-5 -3,0 -5,2 -5,5 0,2 2,5 5,5 z"
         id="path2228"
         inkscape:connector-curvature="0" /></clipPath><clipPath
       clipPathUnits="userSpaceOnUse"
       id="clipPath2246"><path
         d="m 740,845 c 2,0 5,-3 5,-5 0,-3 -3,-5 -5,-5 -3,0 -5,2 -5,5 0,2 2,5 5,5 z"
         id="path2248"
         inkscape:connector-curvature="0" /></clipPath><clipPath
       clipPathUnits="userSpaceOnUse"
       id="clipPath2322"><path
         d="m 520,905 c 2,0 5,-3 5,-5 0,-3 -3,-5 -5,-5 -3,0 -5,2 -5,5 0,2 2,5 5,5 z"
         id="path2324"
         inkscape:connector-curvature="0" /></clipPath><clipPath
       clipPathUnits="userSpaceOnUse"
       id="clipPath2342"><path
         d="m 440,905 c 2,0 5,-3 5,-5 0,-3 -3,-5 -5,-5 -3,0 -5,2 -5,5 0,2 2,5 5,5 z"
         id="path2344"
         inkscape:connector-curvature="0" /></clipPath><clipPath
       clipPathUnits="userSpaceOnUse"
       id="clipPath2642"><path
         d="m 960,685 c 2,0 5,-3 5,-5 0,-3 -3,-5 -5,-5 -3,0 -5,2 -5,5 0,2 2,5 5,5 z"
         id="path2644"
         inkscape:connector-curvature="0" /></clipPath><clipPath
       clipPathUnits="userSpaceOnUse"
       id="clipPath2662"><path
         d="m 1140,785 c 2,0 5,-3 5,-5 0,-3 -3,-5 -5,-5 -3,0 -5,2 -5,5 0,2 2,5 5,5 z"
         id="path2664"
         inkscape:connector-curvature="0" /></clipPath><clipPath
       clipPathUnits="userSpaceOnUse"
       id="clipPath2860"><path
         d="m 960,905 c 2,0 5,-3 5,-5 0,-3 -3,-5 -5,-5 -3,0 -5,2 -5,5 0,2 2,5 5,5 z"
         id="path2862"
         inkscape:connector-curvature="0" /></clipPath><clipPath
       clipPathUnits="userSpaceOnUse"
       id="clipPath2880"><path
         d="m 1140,785 c 2,0 5,-3 5,-5 0,-3 -3,-5 -5,-5 -3,0 -5,2 -5,5 0,2 2,5 5,5 z"
         id="path2882"
         inkscape:connector-curvature="0" /></clipPath></defs><sodipodi:namedview
     pagecolor="#ffffff"
     bordercolor="#666666"
     borderopacity="1"
     objecttolerance="10"
     gridtolerance="10"
     guidetolerance="10"
     inkscape:pageopacity="0"
     inkscape:pageshadow="2"
     inkscape:window-width="1920"
     inkscape:window-height="1138"
     id="namedview4"
     showgrid="false"
     inkscape:zoom="1.4619048"
     inkscape:cx="298.2899"
     inkscape:cy="315"
     inkscape:window-x="-8"
     inkscape:window-y="-8"
     inkscape:window-maximized="1"
     inkscape:current-layer="g16"
     units="in" /><g
     id="g10"
     inkscape:groupmode="layer"
     inkscape:label="Latex_Flowchart"
     transform="matrix(0.5625,0,0,0.5625,0,-135)"><g
       id="g16"><g
         id="g22"
         transform="translate(-17.392115,139.65321)"><path
           d="m 735,101 c 2,-1 7,-1 9,0 l 211,87 c 2,1 2,2 0,3 l -211,87 c -2,1 -7,1 -9,0 L 524,191 c -2,-1 -2,-2 0,-3 l 211,-87 z"
           style="fill:#ffffff;fill-opacity:1;fill-rule:nonzero;stroke:none"
           id="path24"
           inkscape:connector-curvature="0" /></g><g
         id="g28"
         transform="translate(-17.392115,139.65321)"><path
           inkscape:connector-curvature="0"
           id="path30"
           style="fill:none;stroke:#000000;stroke-width:2;stroke-linecap:butt;stroke-linejoin:miter;stroke-miterlimit:10;stroke-opacity:1;stroke-dasharray:none"
           d="m 735,101 c 2,-1 7,-1 9,0 l 211,87 c 2,1 2,2 0,3 l -211,87 c -2,1 -7,1 -9,0 L 524,191 c -2,-1 -2,-2 0,-3 l 211,-87 z" /></g><g
         id="g374"
         transform="translate(-17.392115,139.65321)"><g
           id="g376"><path
             d="M 520,190 C 420,190 420,320 320,320"
             style="fill:none;stroke:#000000;stroke-width:2;stroke-linecap:butt;stroke-linejoin:miter;stroke-miterlimit:10;stroke-opacity:1;stroke-dasharray:none"
             id="path378"
             inkscape:connector-curvature="0" /></g></g><g
         id="g380"
         transform="translate(-17.392115,139.65321)"><g
           id="g382"><path
             d="m 520,190 3,-1"
             style="fill:none;stroke:#000000;stroke-width:2;stroke-linecap:butt;stroke-linejoin:miter;stroke-miterlimit:10;stroke-opacity:1;stroke-dasharray:none"
             id="path384"
             inkscape:connector-curvature="0" /></g></g><g
         id="g386"
         transform="translate(-17.392115,139.65321)"><path
           d="m 320,320 13,-6 1,9 -14,-3 z"
           style="fill:#000000;fill-opacity:1;fill-rule:nonzero;stroke:none"
           id="path388"
           inkscape:connector-curvature="0" /></g><g
         id="g390"
         transform="translate(-17.392115,139.65321)"><g
           id="g392"><path
             d="m 320,320 13,-6 1,9 -14,-3 z"
             style="fill:none;stroke:#000000;stroke-width:2;stroke-linecap:butt;stroke-linejoin:miter;stroke-miterlimit:10;stroke-opacity:1;stroke-dasharray:none"
             id="path394"
             inkscape:connector-curvature="0" /></g></g><g
         id="g396"
         transform="translate(-17.392115,139.65321)"><g
           id="g398"
           clip-path="url(#clipPath400)"><g
             id="g404"><g
               id="g406"><path
                 d="m 735,101 c 2,-1 7,-1 9,0 l 211,87 c 2,1 2,2 0,3 l -211,87 c -2,1 -7,1 -9,0 L 524,191 c -2,-1 -2,-2 0,-3 l 211,-87 z"
                 style="fill:#ffffff;fill-opacity:1;fill-rule:nonzero;stroke:none"
                 id="path408"
                 inkscape:connector-curvature="0" /></g><g
               id="g410"><g
                 id="g412"><path
                   d="m 735,101 c 2,-1 7,-1 9,0 l 211,87 c 2,1 2,2 0,3 l -211,87 c -2,1 -7,1 -9,0 L 524,191 c -2,-1 -2,-2 0,-3 l 211,-87 z"
                   style="fill:none;stroke:#000000;stroke-width:2;stroke-linecap:butt;stroke-linejoin:miter;stroke-miterlimit:10;stroke-opacity:1;stroke-dasharray:none"
                   id="path414"
                   inkscape:connector-curvature="0" /></g></g></g></g></g><g
         id="g416"
         transform="translate(-17.392115,139.65321)"><g
           id="g418"
           clip-path="url(#clipPath420)"><g
             id="g424"><g
               id="g426"><path
                 d="m 288,280 c 17,0 32,17 32,40 0,22 -15,40 -32,40 l -96,0 c -18,0 -32,-18 -32,-40 0,-23 14,-40 32,-40 l 96,0 z"
                 style="fill:#ffffff;fill-opacity:1;fill-rule:nonzero;stroke:none"
                 id="path428"
                 inkscape:connector-curvature="0" /></g><g
               id="g430"><g
                 id="g432"><path
                   d="m 288,280 c 17,0 32,17 32,40 0,22 -15,40 -32,40 l -96,0 c -18,0 -32,-18 -32,-40 0,-23 14,-40 32,-40 l 96,0 z"
                   style="fill:none;stroke:#000000;stroke-width:2;stroke-linecap:butt;stroke-linejoin:miter;stroke-miterlimit:10;stroke-opacity:1;stroke-dasharray:none"
                   id="path434"
                   inkscape:connector-curvature="0" /></g></g></g></g></g><g
         id="g476"
         transform="translate(-17.392115,139.65321)"><g
           id="g480"><path
             inkscape:connector-curvature="0"
             id="path482"
             style="fill:#ffffff;fill-opacity:1;fill-rule:nonzero;stroke:none"
             d="m 288,280 c 17,0 32,17 32,40 0,22 -15,40 -32,40 l -96,0 c -18,0 -32,-18 -32,-40 0,-23 14,-40 32,-40 l 96,0 z" /></g><g
           id="g484"><g
             id="g486"><path
               inkscape:connector-curvature="0"
               id="path488"
               style="fill:none;stroke:#000000;stroke-width:2;stroke-linecap:butt;stroke-linejoin:miter;stroke-miterlimit:10;stroke-opacity:1;stroke-dasharray:none"
               d="m 288,280 c 17,0 32,17 32,40 0,22 -15,40 -32,40 l -96,0 c -18,0 -32,-18 -32,-40 0,-23 14,-40 32,-40 l 96,0 z" /></g></g><g
           id="g490" /></g><g
         id="g582"
         transform="translate(-17.392115,139.65321)"><g
           id="g584"><path
             d="m 740,280 c 0,50 0,50 0,100"
             style="fill:none;stroke:#000000;stroke-width:2;stroke-linecap:butt;stroke-linejoin:miter;stroke-miterlimit:10;stroke-opacity:1;stroke-dasharray:none"
             id="path586"
             inkscape:connector-curvature="0" /></g></g><g
         id="g588"
         transform="translate(-17.392115,139.65321)"><g
           id="g590"><path
             d="m 740,280 0,-3"
             style="fill:none;stroke:#000000;stroke-width:2;stroke-linecap:butt;stroke-linejoin:miter;stroke-miterlimit:10;stroke-opacity:1;stroke-dasharray:none"
             id="path592"
             inkscape:connector-curvature="0" /></g></g><g
         id="g594"
         transform="translate(-17.392115,139.65321)"><path
           d="m 740,380 -5,-15 9,0 -4,15 z"
           style="fill:#000000;fill-opacity:1;fill-rule:nonzero;stroke:none"
           id="path596"
           inkscape:connector-curvature="0" /></g><g
         id="g598"
         transform="translate(-17.392115,139.65321)"><g
           id="g600"><path
             d="m 740,380 -5,-15 9,0 -4,15 z"
             style="fill:none;stroke:#000000;stroke-width:2;stroke-linecap:butt;stroke-linejoin:miter;stroke-miterlimit:10;stroke-opacity:1;stroke-dasharray:none"
             id="path602"
             inkscape:connector-curvature="0" /></g></g><g
         id="g604"
         transform="translate(-17.392115,139.65321)"><g
           id="g606"
           clip-path="url(#clipPath608)"><g
             id="g612"><g
               id="g614"><path
                 d="m 735,101 c 2,-1 7,-1 9,0 l 211,87 c 2,1 2,2 0,3 l -211,87 c -2,1 -7,1 -9,0 L 524,191 c -2,-1 -2,-2 0,-3 l 211,-87 z"
                 style="fill:#ffffff;fill-opacity:1;fill-rule:nonzero;stroke:none"
                 id="path616"
                 inkscape:connector-curvature="0" /></g><g
               id="g618"><g
                 id="g620"><path
                   d="m 735,101 c 2,-1 7,-1 9,0 l 211,87 c 2,1 2,2 0,3 l -211,87 c -2,1 -7,1 -9,0 L 524,191 c -2,-1 -2,-2 0,-3 l 211,-87 z"
                   style="fill:none;stroke:#000000;stroke-width:2;stroke-linecap:butt;stroke-linejoin:miter;stroke-miterlimit:10;stroke-opacity:1;stroke-dasharray:none"
                   id="path622"
                   inkscape:connector-curvature="0" /></g></g></g></g></g><g
         id="g624"
         transform="translate(-17.392115,139.65321)"><g
           id="g626"
           clip-path="url(#clipPath628)"><g
             id="g632"><g
               id="g634"><path
                 d="m 735,381 c 2,-1 7,-1 9,0 l 211,77 c 2,1 2,2 0,3 l -211,77 c -2,1 -7,1 -9,0 L 524,461 c -2,-1 -2,-2 0,-3 l 211,-77 z"
                 style="fill:#ffffff;fill-opacity:1;fill-rule:nonzero;stroke:none"
                 id="path636"
                 inkscape:connector-curvature="0" /></g><g
               id="g638"><g
                 id="g640"><path
                   d="m 735,381 c 2,-1 7,-1 9,0 l 211,77 c 2,1 2,2 0,3 l -211,77 c -2,1 -7,1 -9,0 L 524,461 c -2,-1 -2,-2 0,-3 l 211,-77 z"
                   style="fill:none;stroke:#000000;stroke-width:2;stroke-linecap:butt;stroke-linejoin:miter;stroke-miterlimit:10;stroke-opacity:1;stroke-dasharray:none"
                   id="path642"
                   inkscape:connector-curvature="0" /></g></g></g></g></g><path
         inkscape:connector-curvature="0"
         id="path680"
         style="fill:#ffffff;fill-opacity:1;fill-rule:nonzero;stroke:none"
         d="m 717.60788,520.65321 c 2,-1 7,-1 9,0 l 211,77 c 2,1 2,2 0,3 l -211,77 c -2,1 -7,1 -9,0 l -211,-77 c -2,-1 -2,-2 0,-3 l 211,-77 z" /><g
         id="g684"
         transform="translate(-17.392115,139.65321)"><path
           inkscape:connector-curvature="0"
           id="path686"
           style="fill:none;stroke:#000000;stroke-width:2;stroke-linecap:butt;stroke-linejoin:miter;stroke-miterlimit:10;stroke-opacity:1;stroke-dasharray:none"
           d="m 735,381 c 2,-1 7,-1 9,0 l 211,77 c 2,1 2,2 0,3 l -211,77 c -2,1 -7,1 -9,0 L 524,461 c -2,-1 -2,-2 0,-3 l 211,-77 z" /></g><g
         id="g1236"
         transform="translate(-17.392115,139.65321)"><g
           id="g1238"><path
             d="M 520,460 C 420,460 420,320 320,320"
             style="fill:none;stroke:#000000;stroke-width:2;stroke-linecap:butt;stroke-linejoin:miter;stroke-miterlimit:10;stroke-opacity:1;stroke-dasharray:none"
             id="path1240"
             inkscape:connector-curvature="0" /></g></g><g
         id="g1242"
         transform="translate(-17.392115,139.65321)"><g
           id="g1244"><path
             d="m 520,460 3,0"
             style="fill:none;stroke:#000000;stroke-width:2;stroke-linecap:butt;stroke-linejoin:miter;stroke-miterlimit:10;stroke-opacity:1;stroke-dasharray:none"
             id="path1246"
             inkscape:connector-curvature="0" /></g></g><g
         id="g1248"
         transform="translate(-17.392115,139.65321)"><path
           d="m 320,320 14,-4 -1,9 -13,-5 z"
           style="fill:#000000;fill-opacity:1;fill-rule:nonzero;stroke:none"
           id="path1250"
           inkscape:connector-curvature="0" /></g><g
         id="g1252"
         transform="translate(-17.392115,139.65321)"><g
           id="g1254"><path
             d="m 320,320 14,-4 -1,9 -13,-5 z"
             style="fill:none;stroke:#000000;stroke-width:2;stroke-linecap:butt;stroke-linejoin:miter;stroke-miterlimit:10;stroke-opacity:1;stroke-dasharray:none"
             id="path1256"
             inkscape:connector-curvature="0" /></g></g><g
         id="g1258"
         transform="translate(-17.392115,139.65321)"><g
           id="g1260"
           clip-path="url(#clipPath1262)"><g
             id="g1266"><g
               id="g1268"><path
                 d="m 735,381 c 2,-1 7,-1 9,0 l 211,77 c 2,1 2,2 0,3 l -211,77 c -2,1 -7,1 -9,0 L 524,461 c -2,-1 -2,-2 0,-3 l 211,-77 z"
                 style="fill:#ffffff;fill-opacity:1;fill-rule:nonzero;stroke:none"
                 id="path1270"
                 inkscape:connector-curvature="0" /></g><g
               id="g1272"><g
                 id="g1274"><path
                   d="m 735,381 c 2,-1 7,-1 9,0 l 211,77 c 2,1 2,2 0,3 l -211,77 c -2,1 -7,1 -9,0 L 524,461 c -2,-1 -2,-2 0,-3 l 211,-77 z"
                   style="fill:none;stroke:#000000;stroke-width:2;stroke-linecap:butt;stroke-linejoin:miter;stroke-miterlimit:10;stroke-opacity:1;stroke-dasharray:none"
                   id="path1276"
                   inkscape:connector-curvature="0" /></g></g></g></g></g><g
         id="g1278"
         transform="translate(-17.392115,139.65321)"><g
           id="g1280"
           clip-path="url(#clipPath1282)"><g
             id="g1286"><g
               id="g1288"><path
                 d="m 288,280 c 17,0 32,17 32,40 0,22 -15,40 -32,40 l -96,0 c -18,0 -32,-18 -32,-40 0,-23 14,-40 32,-40 l 96,0 z"
                 style="fill:#ffffff;fill-opacity:1;fill-rule:nonzero;stroke:none"
                 id="path1290"
                 inkscape:connector-curvature="0" /></g><g
               id="g1292"><g
                 id="g1294"><path
                   d="m 288,280 c 17,0 32,17 32,40 0,22 -15,40 -32,40 l -96,0 c -18,0 -32,-18 -32,-40 0,-23 14,-40 32,-40 l 96,0 z"
                   style="fill:none;stroke:#000000;stroke-width:2;stroke-linecap:butt;stroke-linejoin:miter;stroke-miterlimit:10;stroke-opacity:1;stroke-dasharray:none"
                   id="path1296"
                   inkscape:connector-curvature="0" /></g></g></g></g></g><g
         id="g1342"
         transform="translate(-17.392115,139.65321)"><g
           id="g1344"><path
             d="m 740,540 c 0,40 0,40 0,80"
             style="fill:none;stroke:#000000;stroke-width:2;stroke-linecap:butt;stroke-linejoin:miter;stroke-miterlimit:10;stroke-opacity:1;stroke-dasharray:none"
             id="path1346"
             inkscape:connector-curvature="0" /></g></g><g
         id="g1348"
         transform="translate(-17.392115,139.65321)"><g
           id="g1350"><path
             d="m 740,540 0,-3"
             style="fill:none;stroke:#000000;stroke-width:2;stroke-linecap:butt;stroke-linejoin:miter;stroke-miterlimit:10;stroke-opacity:1;stroke-dasharray:none"
             id="path1352"
             inkscape:connector-curvature="0" /></g></g><g
         id="g1354"
         transform="translate(-17.392115,139.65321)"><path
           d="m 740,620 -5,-15 9,0 -4,15 z"
           style="fill:#000000;fill-opacity:1;fill-rule:nonzero;stroke:none"
           id="path1356"
           inkscape:connector-curvature="0" /></g><g
         id="g1358"
         transform="translate(-17.392115,139.65321)"><g
           id="g1360"><path
             d="m 740,620 -5,-15 9,0 -4,15 z"
             style="fill:none;stroke:#000000;stroke-width:2;stroke-linecap:butt;stroke-linejoin:miter;stroke-miterlimit:10;stroke-opacity:1;stroke-dasharray:none"
             id="path1362"
             inkscape:connector-curvature="0" /></g></g><g
         id="g1364"
         transform="translate(-17.392115,139.65321)"><g
           id="g1366"
           clip-path="url(#clipPath1368)"><g
             id="g1372"><g
               id="g1374"><path
                 d="m 735,381 c 2,-1 7,-1 9,0 l 211,77 c 2,1 2,2 0,3 l -211,77 c -2,1 -7,1 -9,0 L 524,461 c -2,-1 -2,-2 0,-3 l 211,-77 z"
                 style="fill:#ffffff;fill-opacity:1;fill-rule:nonzero;stroke:none"
                 id="path1376"
                 inkscape:connector-curvature="0" /></g><g
               id="g1378"><g
                 id="g1380"><path
                   d="m 735,381 c 2,-1 7,-1 9,0 l 211,77 c 2,1 2,2 0,3 l -211,77 c -2,1 -7,1 -9,0 L 524,461 c -2,-1 -2,-2 0,-3 l 211,-77 z"
                   style="fill:none;stroke:#000000;stroke-width:2;stroke-linecap:butt;stroke-linejoin:miter;stroke-miterlimit:10;stroke-opacity:1;stroke-dasharray:none"
                   id="path1382"
                   inkscape:connector-curvature="0" /></g></g></g></g></g><g
         id="g1384"
         transform="translate(-17.392115,139.65321)"><g
           id="g1386"
           clip-path="url(#clipPath1388)"><g
             id="g1392"><g
               id="g1394"><path
                 d="m 735,621 c 2,-1 7,-1 9,0 l 211,57 c 2,1 2,2 0,3 l -211,57 c -2,1 -7,1 -9,0 L 524,681 c -2,-1 -2,-2 0,-3 l 211,-57 z"
                 style="fill:#ffffff;fill-opacity:1;fill-rule:nonzero;stroke:none"
                 id="path1396"
                 inkscape:connector-curvature="0" /></g><g
               id="g1398"><g
                 id="g1400"><path
                   d="m 735,621 c 2,-1 7,-1 9,0 l 211,57 c 2,1 2,2 0,3 l -211,57 c -2,1 -7,1 -9,0 L 524,681 c -2,-1 -2,-2 0,-3 l 211,-57 z"
                   style="fill:none;stroke:#000000;stroke-width:2;stroke-linecap:butt;stroke-linejoin:miter;stroke-miterlimit:10;stroke-opacity:1;stroke-dasharray:none"
                   id="path1402"
                   inkscape:connector-curvature="0" /></g></g></g></g></g><g
         id="g1438"
         transform="translate(-17.392115,139.65321)"><path
           d="m 735,621 c 2,-1 7,-1 9,0 l 211,57 c 2,1 2,2 0,3 l -211,57 c -2,1 -7,1 -9,0 L 524,681 c -2,-1 -2,-2 0,-3 l 211,-57 z"
           style="fill:#ffffff;fill-opacity:1;fill-rule:nonzero;stroke:none"
           id="path1440"
           inkscape:connector-curvature="0" /></g><g
         id="g1442"
         transform="translate(-17.392115,139.65321)"><g
           id="g1444"><path
             d="m 735,621 c 2,-1 7,-1 9,0 l 211,57 c 2,1 2,2 0,3 l -211,57 c -2,1 -7,1 -9,0 L 524,681 c -2,-1 -2,-2 0,-3 l 211,-57 z"
             style="fill:none;stroke:#000000;stroke-width:2;stroke-linecap:butt;stroke-linejoin:miter;stroke-miterlimit:10;stroke-opacity:1;stroke-dasharray:none"
             id="path1446"
             inkscape:connector-curvature="0" /></g></g><g
         id="g1674"
         transform="translate(-17.392115,139.65321)"><path
           d="m 735,841 c 2,-1 7,-1 9,0 l 211,57 c 2,1 2,2 0,3 l -211,57 c -2,1 -7,1 -9,0 L 524,901 c -2,-1 -2,-2 0,-3 l 211,-57 z"
           style="fill:#ffffff;fill-opacity:1;fill-rule:nonzero;stroke:none"
           id="path1676"
           inkscape:connector-curvature="0" /></g><g
         id="g1678"
         transform="matrix(1,0,0,1.3633071,-17.392115,-187.1415)"><g
           id="g1680"><path
             d="m 735,841 c 2,-1 7,-1 9,0 l 211,57 c 2,1 2,2 0,3 l -211,57 c -2,1 -7,1 -9,0 L 524,901 c -2,-1 -2,-2 0,-3 l 211,-57 z"
             style="fill:none;stroke:#000000;stroke-width:2;stroke-linecap:butt;stroke-linejoin:miter;stroke-miterlimit:10;stroke-opacity:1;stroke-dasharray:none"
             id="path1682"
             inkscape:connector-curvature="0" /></g></g><g
         id="g2200"
         transform="matrix(1,0,0,0.77347725,-17.392115,307.05352)"><g
           id="g2202"><path
             d="m 740,740 c 0,50 0,50 0,100"
             style="fill:none;stroke:#000000;stroke-width:2;stroke-linecap:butt;stroke-linejoin:miter;stroke-miterlimit:10;stroke-opacity:1;stroke-dasharray:none"
             id="path2204"
             inkscape:connector-curvature="0" /></g></g><g
         id="g2206"
         transform="translate(-17.392115,139.65321)"><g
           id="g2208"><path
             d="m 740,740 0,-3"
             style="fill:none;stroke:#000000;stroke-width:2;stroke-linecap:butt;stroke-linejoin:miter;stroke-miterlimit:10;stroke-opacity:1;stroke-dasharray:none"
             id="path2210"
             inkscape:connector-curvature="0" /></g></g><g
         id="g2212"
         transform="translate(-17.392115,118.31985)"><path
           d="m 740,840 -5,-15 9,0 -4,15 z"
           style="fill:#000000;fill-opacity:1;fill-rule:nonzero;stroke:none"
           id="path2214"
           inkscape:connector-curvature="0" /></g><g
         id="g2216"
         transform="translate(-17.392115,118.31985)"><g
           id="g2218"><path
             d="m 740,840 -5,-15 9,0 -4,15 z"
             style="fill:none;stroke:#000000;stroke-width:2;stroke-linecap:butt;stroke-linejoin:miter;stroke-miterlimit:10;stroke-opacity:1;stroke-dasharray:none"
             id="path2220"
             inkscape:connector-curvature="0" /></g></g><g
         id="g2222"
         transform="translate(-17.392115,139.65321)"><g
           id="g2224"
           clip-path="url(#clipPath2226)"><g
             id="g2230"><g
               id="g2232"><path
                 d="m 735,621 c 2,-1 7,-1 9,0 l 211,57 c 2,1 2,2 0,3 l -211,57 c -2,1 -7,1 -9,0 L 524,681 c -2,-1 -2,-2 0,-3 l 211,-57 z"
                 style="fill:#ffffff;fill-opacity:1;fill-rule:nonzero;stroke:none"
                 id="path2234"
                 inkscape:connector-curvature="0" /></g><g
               id="g2236"><g
                 id="g2238"><path
                   d="m 735,621 c 2,-1 7,-1 9,0 l 211,57 c 2,1 2,2 0,3 l -211,57 c -2,1 -7,1 -9,0 L 524,681 c -2,-1 -2,-2 0,-3 l 211,-57 z"
                   style="fill:none;stroke:#000000;stroke-width:2;stroke-linecap:butt;stroke-linejoin:miter;stroke-miterlimit:10;stroke-opacity:1;stroke-dasharray:none"
                   id="path2240"
                   inkscape:connector-curvature="0" /></g></g></g></g></g><g
         id="g2296"
         transform="translate(-17.392115,139.65321)"><g
           id="g2298"><path
             d="m 520,900 c -40,0 -40,0 -80,0"
             style="fill:none;stroke:#000000;stroke-width:2;stroke-linecap:butt;stroke-linejoin:miter;stroke-miterlimit:10;stroke-opacity:1;stroke-dasharray:none"
             id="path2300"
             inkscape:connector-curvature="0" /></g></g><g
         id="g2302"
         transform="translate(-17.392115,139.65321)"><g
           id="g2304"><path
             d="m 520,900 3,0"
             style="fill:none;stroke:#000000;stroke-width:2;stroke-linecap:butt;stroke-linejoin:miter;stroke-miterlimit:10;stroke-opacity:1;stroke-dasharray:none"
             id="path2306"
             inkscape:connector-curvature="0" /></g></g><g
         id="g2308"
         transform="translate(-17.392115,139.65321)"><path
           d="m 440,900 14,-5 0,9 -14,-4 z"
           style="fill:#000000;fill-opacity:1;fill-rule:nonzero;stroke:none"
           id="path2310"
           inkscape:connector-curvature="0" /></g><g
         id="g2312"
         transform="translate(-17.392115,139.65321)"><g
           id="g2314"><path
             d="m 440,900 14,-5 0,9 -14,-4 z"
             style="fill:none;stroke:#000000;stroke-width:2;stroke-linecap:butt;stroke-linejoin:miter;stroke-miterlimit:10;stroke-opacity:1;stroke-dasharray:none"
             id="path2316"
             inkscape:connector-curvature="0" /></g></g><g
         id="g2318"
         transform="translate(-17.392115,139.65321)"><g
           id="g2320"
           clip-path="url(#clipPath2322)"><g
             id="g2326"><g
               id="g2328"><path
                 d="m 735,841 c 2,-1 7,-1 9,0 l 211,57 c 2,1 2,2 0,3 l -211,57 c -2,1 -7,1 -9,0 L 524,901 c -2,-1 -2,-2 0,-3 l 211,-57 z"
                 style="fill:#ffffff;fill-opacity:1;fill-rule:nonzero;stroke:none"
                 id="path2330"
                 inkscape:connector-curvature="0" /></g><g
               id="g2332"><g
                 id="g2334"><path
                   d="m 735,841 c 2,-1 7,-1 9,0 l 211,57 c 2,1 2,2 0,3 l -211,57 c -2,1 -7,1 -9,0 L 524,901 c -2,-1 -2,-2 0,-3 l 211,-57 z"
                   style="fill:none;stroke:#000000;stroke-width:2;stroke-linecap:butt;stroke-linejoin:miter;stroke-miterlimit:10;stroke-opacity:1;stroke-dasharray:none"
                   id="path2336"
                   inkscape:connector-curvature="0" /></g></g></g></g></g><g
         id="g2338"
         transform="translate(-17.392115,139.65321)"><g
           id="g2340"
           clip-path="url(#clipPath2342)"><g
             id="g2346"><g
               id="g2348"><path
                 d="m 396,860 c 24,0 44,17 44,40 0,22 -20,40 -44,40 l -132,0 c -25,0 -44,-18 -44,-40 0,-23 19,-40 44,-40 l 132,0 z"
                 style="fill:#ffffff;fill-opacity:1;fill-rule:nonzero;stroke:none"
                 id="path2350"
                 inkscape:connector-curvature="0" /></g><g
               id="g2352"><g
                 id="g2354"><path
                   d="m 396,860 c 24,0 44,17 44,40 0,22 -20,40 -44,40 l -132,0 c -25,0 -44,-18 -44,-40 0,-23 19,-40 44,-40 l 132,0 z"
                   style="fill:none;stroke:#000000;stroke-width:2;stroke-linecap:butt;stroke-linejoin:miter;stroke-miterlimit:10;stroke-opacity:1;stroke-dasharray:none"
                   id="path2356"
                   inkscape:connector-curvature="0" /></g></g></g></g></g><g
         id="g2402"
         transform="translate(-17.392115,139.65321)"><path
           d="m 396,860 c 24,0 44,17 44,40 0,22 -20,40 -44,40 l -132,0 c -25,0 -44,-18 -44,-40 0,-23 19,-40 44,-40 l 132,0 z"
           style="fill:#ffffff;fill-opacity:1;fill-rule:nonzero;stroke:none"
           id="path2404"
           inkscape:connector-curvature="0" /></g><g
         id="g2406"
         transform="matrix(1.4875234,0,0,1,-232.38992,139.65321)"><g
           id="g2408"><path
             d="m 396,860 c 24,0 44,17 44,40 0,22 -20,40 -44,40 l -132,0 c -25,0 -44,-18 -44,-40 0,-23 19,-40 44,-40 l 132,0 z"
             style="fill:none;stroke:#000000;stroke-width:2;stroke-linecap:butt;stroke-linejoin:miter;stroke-miterlimit:10;stroke-opacity:1;stroke-dasharray:none"
             id="path2410"
             inkscape:connector-curvature="0" /></g></g><g
         id="g2616"
         transform="translate(-17.392115,139.65321)"><g
           id="g2618"><path
             d="m 960,680 c 90,0 90,100 180,100"
             style="fill:none;stroke:#000000;stroke-width:2;stroke-linecap:butt;stroke-linejoin:miter;stroke-miterlimit:10;stroke-opacity:1;stroke-dasharray:none"
             id="path2620"
             inkscape:connector-curvature="0" /></g></g><g
         id="g2622"
         transform="translate(-17.392115,139.65321)"><g
           id="g2624"><path
             d="m 960,680 -3,-1"
             style="fill:none;stroke:#000000;stroke-width:2;stroke-linecap:butt;stroke-linejoin:miter;stroke-miterlimit:10;stroke-opacity:1;stroke-dasharray:none"
             id="path2626"
             inkscape:connector-curvature="0" /></g></g><g
         id="g2628"
         transform="translate(-17.392115,139.65321)"><path
           d="m 1140,780 -15,3 1,-9 14,6 z"
           style="fill:#000000;fill-opacity:1;fill-rule:nonzero;stroke:none"
           id="path2630"
           inkscape:connector-curvature="0" /></g><g
         id="g2632"
         transform="translate(-17.392115,139.65321)"><g
           id="g2634"><path
             d="m 1140,780 -15,3 1,-9 14,6 z"
             style="fill:none;stroke:#000000;stroke-width:2;stroke-linecap:butt;stroke-linejoin:miter;stroke-miterlimit:10;stroke-opacity:1;stroke-dasharray:none"
             id="path2636"
             inkscape:connector-curvature="0" /></g></g><g
         id="g2638"
         transform="translate(-17.392115,139.65321)"><g
           id="g2640"
           clip-path="url(#clipPath2642)"><g
             id="g2646"><g
               id="g2648"><path
                 d="m 735,621 c 2,-1 7,-1 9,0 l 211,57 c 2,1 2,2 0,3 l -211,57 c -2,1 -7,1 -9,0 L 524,681 c -2,-1 -2,-2 0,-3 l 211,-57 z"
                 style="fill:#ffffff;fill-opacity:1;fill-rule:nonzero;stroke:none"
                 id="path2650"
                 inkscape:connector-curvature="0" /></g><g
               id="g2652"><g
                 id="g2654"><path
                   d="m 735,621 c 2,-1 7,-1 9,0 l 211,57 c 2,1 2,2 0,3 l -211,57 c -2,1 -7,1 -9,0 L 524,681 c -2,-1 -2,-2 0,-3 l 211,-57 z"
                   style="fill:none;stroke:#000000;stroke-width:2;stroke-linecap:butt;stroke-linejoin:miter;stroke-miterlimit:10;stroke-opacity:1;stroke-dasharray:none"
                   id="path2656"
                   inkscape:connector-curvature="0" /></g></g></g></g></g><g
         id="g2658"
         transform="translate(-17.392115,139.65321)"><g
           id="g2660"
           clip-path="url(#clipPath2662)"><g
             id="g2666"><g
               id="g2668"><path
                 d="m 1300,740 c 22,0 40,17 40,40 0,22 -18,40 -40,40 l -120,0 c -23,0 -40,-18 -40,-40 0,-23 17,-40 40,-40 l 120,0 z"
                 style="fill:#ffffff;fill-opacity:1;fill-rule:nonzero;stroke:none"
                 id="path2670"
                 inkscape:connector-curvature="0" /></g><g
               id="g2672"><g
                 id="g2674"><path
                   d="m 1300,740 c 22,0 40,17 40,40 0,22 -18,40 -40,40 l -120,0 c -23,0 -40,-18 -40,-40 0,-23 17,-40 40,-40 l 120,0 z"
                   style="fill:none;stroke:#000000;stroke-width:2;stroke-linecap:butt;stroke-linejoin:miter;stroke-miterlimit:10;stroke-opacity:1;stroke-dasharray:none"
                   id="path2676"
                   inkscape:connector-curvature="0" /></g></g></g></g></g><g
         id="g2722"
         transform="translate(-17.392115,139.65321)"><path
           d="m 1300,740 c 22,0 40,17 40,40 0,22 -18,40 -40,40 l -120,0 c -23,0 -40,-18 -40,-40 0,-23 17,-40 40,-40 l 120,0 z"
           style="fill:#ffffff;fill-opacity:1;fill-rule:nonzero;stroke:none"
           id="path2724"
           inkscape:connector-curvature="0" /></g><g
         id="g2726"
         transform="translate(-17.392115,139.65321)"><g
           id="g2728"><path
             d="m 1300,740 c 22,0 40,17 40,40 0,22 -18,40 -40,40 l -120,0 c -23,0 -40,-18 -40,-40 0,-23 17,-40 40,-40 l 120,0 z"
             style="fill:none;stroke:#000000;stroke-width:2;stroke-linecap:butt;stroke-linejoin:miter;stroke-miterlimit:10;stroke-opacity:1;stroke-dasharray:none"
             id="path2730"
             inkscape:connector-curvature="0" /></g></g><g
         id="g2834"
         transform="translate(-17.392115,139.65321)"><g
           id="g2836"><path
             d="m 960,900 c 90,0 90,-120 180,-120"
             style="fill:none;stroke:#000000;stroke-width:2;stroke-linecap:butt;stroke-linejoin:miter;stroke-miterlimit:10;stroke-opacity:1;stroke-dasharray:none"
             id="path2838"
             inkscape:connector-curvature="0" /></g></g><g
         id="g2840"
         transform="translate(-17.392115,139.65321)"><g
           id="g2842"><path
             d="m 960,900 -3,0"
             style="fill:none;stroke:#000000;stroke-width:2;stroke-linecap:butt;stroke-linejoin:miter;stroke-miterlimit:10;stroke-opacity:1;stroke-dasharray:none"
             id="path2844"
             inkscape:connector-curvature="0" /></g></g><g
         id="g2846"
         transform="translate(-17.392115,139.65321)"><path
           d="m 1140,780 -14,5 -1,-9 15,4 z"
           style="fill:#000000;fill-opacity:1;fill-rule:nonzero;stroke:none"
           id="path2848"
           inkscape:connector-curvature="0" /></g><g
         id="g2850"
         transform="translate(-17.392115,139.65321)"><g
           id="g2852"><path
             d="m 1140,780 -14,5 -1,-9 15,4 z"
             style="fill:none;stroke:#000000;stroke-width:2;stroke-linecap:butt;stroke-linejoin:miter;stroke-miterlimit:10;stroke-opacity:1;stroke-dasharray:none"
             id="path2854"
             inkscape:connector-curvature="0" /></g></g><g
         id="g2856"
         transform="translate(-17.392115,139.65321)"><g
           id="g2858"
           clip-path="url(#clipPath2860)"><g
             id="g2864"><g
               id="g2866"><path
                 d="m 735,841 c 2,-1 7,-1 9,0 l 211,57 c 2,1 2,2 0,3 l -211,57 c -2,1 -7,1 -9,0 L 524,901 c -2,-1 -2,-2 0,-3 l 211,-57 z"
                 style="fill:#ffffff;fill-opacity:1;fill-rule:nonzero;stroke:none"
                 id="path2868"
                 inkscape:connector-curvature="0" /></g><g
               id="g2870"><g
                 id="g2872"><path
                   d="m 735,841 c 2,-1 7,-1 9,0 l 211,57 c 2,1 2,2 0,3 l -211,57 c -2,1 -7,1 -9,0 L 524,901 c -2,-1 -2,-2 0,-3 l 211,-57 z"
                   style="fill:none;stroke:#000000;stroke-width:2;stroke-linecap:butt;stroke-linejoin:miter;stroke-miterlimit:10;stroke-opacity:1;stroke-dasharray:none"
                   id="path2874"
                   inkscape:connector-curvature="0" /></g></g></g></g></g><g
         id="g2876"
         transform="translate(-17.392115,139.65321)"><g
           id="g2878"
           clip-path="url(#clipPath2880)"><g
             id="g2884"><g
               id="g2886"><path
                 d="m 1300,740 c 22,0 40,17 40,40 0,22 -18,40 -40,40 l -120,0 c -23,0 -40,-18 -40,-40 0,-23 17,-40 40,-40 l 120,0 z"
                 style="fill:#ffffff;fill-opacity:1;fill-rule:nonzero;stroke:none"
                 id="path2888"
                 inkscape:connector-curvature="0" /></g><g
               id="g2890"><g
                 id="g2892"><path
                   d="m 1300,740 c 22,0 40,17 40,40 0,22 -18,40 -40,40 l -120,0 c -23,0 -40,-18 -40,-40 0,-23 17,-40 40,-40 l 120,0 z"
                   style="fill:none;stroke:#000000;stroke-width:2;stroke-linecap:butt;stroke-linejoin:miter;stroke-miterlimit:10;stroke-opacity:1;stroke-dasharray:none"
                   id="path2894"
                   inkscape:connector-curvature="0" /></g></g></g></g></g><text
         xml:space="preserve"
         style="font-size:24.88888931px;font-style:normal;font-variant:normal;font-weight:normal;font-stretch:normal;text-align:start;line-height:125%;letter-spacing:0px;word-spacing:0px;writing-mode:lr-tb;text-anchor:start;fill:#000000;fill-opacity:1;stroke:none;font-family:Times New Roman;-inkscape-font-specification:'Times New Roman,'"
         x="418.91367"
         y="538.52399"
         id="text8171"
         sodipodi:linespacing="125%"><tspan
           sodipodi:role="line"
           id="tspan8173"
           x="418.91367"
           y="538.52399">yes</tspan></text>
<text
         xml:space="preserve"
         style="font-size:24.88888931px;font-style:normal;font-variant:normal;font-weight:normal;font-stretch:normal;text-align:start;line-height:125%;letter-spacing:0px;word-spacing:0px;writing-mode:lr-tb;text-anchor:start;fill:#000000;fill-opacity:1;stroke:none;font-family:Times New Roman;-inkscape-font-specification:'Times New Roman,'"
         x="417.55179"
         y="409.02277"
         id="text8171-7"
         sodipodi:linespacing="125%"><tspan
           sodipodi:role="line"
           id="tspan8173-6"
           x="417.55179"
           y="409.02277">yes</tspan></text>
<text
         xml:space="preserve"
         style="font-size:24.88888931px;font-style:normal;font-variant:normal;font-weight:normal;font-stretch:normal;text-align:center;line-height:125%;letter-spacing:0px;word-spacing:0px;writing-mode:lr-tb;text-anchor:middle;fill:#000000;fill-opacity:1;stroke:none;font-family:Times New Roman;-inkscape-font-specification:'Times New Roman,'"
         x="471.32199"
         y="1024.3539"
         id="text8171-0"
         sodipodi:linespacing="125%"><tspan
           sodipodi:role="line"
           id="tspan8173-5"
           x="471.32199"
           y="1024.3539">yes</tspan></text>
<text
         xml:space="preserve"
         style="font-size:24.88888931px;font-style:normal;font-variant:normal;font-weight:normal;font-stretch:normal;text-align:start;line-height:125%;letter-spacing:0px;word-spacing:0px;writing-mode:lr-tb;text-anchor:start;fill:#000000;fill-opacity:1;stroke:none;font-family:Times New Roman;-inkscape-font-specification:'Times New Roman,'"
         x="1035.3151"
         y="860.18451"
         id="text8171-3"
         sodipodi:linespacing="125%"><tspan
           sodipodi:role="line"
           id="tspan8173-4"
           x="1035.3151"
           y="860.18451">yes</tspan></text>
<text
         xml:space="preserve"
         style="font-size:24.88888931px;font-style:normal;font-variant:normal;font-weight:normal;font-stretch:normal;text-align:start;line-height:125%;letter-spacing:0px;word-spacing:0px;writing-mode:lr-tb;text-anchor:start;fill:#000000;fill-opacity:1;stroke:none;font-family:Times New Roman;-inkscape-font-specification:'Times New Roman,'"
         x="1037.7472"
         y="1000.0325"
         id="text8171-3-5"
         sodipodi:linespacing="125%"><tspan
           sodipodi:role="line"
           id="tspan8173-4-3"
           x="1037.7472"
           y="1000.0325">no</tspan></text>
<text
         xml:space="preserve"
         style="font-size:24.88888931px;font-style:normal;font-variant:normal;font-weight:normal;font-stretch:normal;text-align:start;line-height:125%;letter-spacing:0px;word-spacing:0px;writing-mode:lr-tb;text-anchor:start;fill:#000000;fill-opacity:1;stroke:none;font-family:Times New Roman;-inkscape-font-specification:'Times New Roman,'"
         x="731.74194"
         y="934.87"
         id="text8692"
         sodipodi:linespacing="125%"><tspan
           sodipodi:role="line"
           id="tspan8694"
           x="731.74194"
           y="934.87">no</tspan></text>
<text
         xml:space="preserve"
         style="font-size:24.88888931px;font-style:normal;font-variant:normal;font-weight:normal;font-stretch:normal;text-align:center;line-height:125%;letter-spacing:0px;word-spacing:0px;writing-mode:lr-tb;text-anchor:middle;fill:#000000;fill-opacity:1;stroke:none;font-family:Times New Roman;-inkscape-font-specification:'Times New Roman,'"
         x="722.05927"
         y="589.55249"
         id="text8696"
         sodipodi:linespacing="125%"><tspan
           sodipodi:role="line"
           x="722.05927"
           y="589.55249"
           id="tspan8700">\parbox[c][2em][c]{1.75 in}{\centering Do you need\\</tspan><tspan
           sodipodi:role="line"
           x="722.05927"
           y="620.66357"
           id="tspan8702">\textbf{\color{1675C} Track Changes} for it?}</tspan></text>
<text
         xml:space="preserve"
         style="font-size:24.88888931px;font-style:normal;font-variant:normal;font-weight:normal;font-stretch:normal;text-align:center;line-height:125%;letter-spacing:0px;word-spacing:0px;writing-mode:lr-tb;text-anchor:middle;fill:#000000;fill-opacity:1;stroke:none;font-family:Times New Roman;-inkscape-font-specification:'Times New Roman,'"
         x="723.49939"
         y="319.55249"
         id="text8696-4"
         sodipodi:linespacing="125%"><tspan
           sodipodi:role="line"
           x="723.49939"
           y="319.55249"
           id="tspan8702-8">\parbox[c][2em][c]{1.75 in}{\centering Does it need\\</tspan><tspan
           sodipodi:role="line"
           x="723.49939"
           y="350.6636"
           id="tspan8736">to be done in an hour?}</tspan></text>
<text
         xml:space="preserve"
         style="font-size:24.88888931px;font-style:normal;font-variant:normal;font-weight:normal;font-stretch:normal;text-align:center;line-height:125%;letter-spacing:0px;word-spacing:0px;writing-mode:lr-tb;text-anchor:middle;fill:#000000;fill-opacity:1;stroke:none;font-family:Times New Roman;-inkscape-font-specification:'Times New Roman,'"
         x="224.10875"
         y="465.60806"
         id="text8740"
         sodipodi:linespacing="125%"><tspan
           sodipodi:role="line"
           id="tspan8742"
           x="224.10875"
           y="465.60806">use \textbf{\color{652C} word}</tspan></text>
<text
         xml:space="preserve"
         style="font-size:24.88888931px;font-style:normal;font-variant:normal;font-weight:normal;font-stretch:normal;text-align:center;line-height:125%;letter-spacing:0px;word-spacing:0px;writing-mode:lr-tb;text-anchor:middle;fill:#000000;fill-opacity:1;stroke:none;font-family:Times New Roman;-inkscape-font-specification:'Times New Roman,'"
         x="259.99368"
         y="1045.608"
         id="text8740-2"
         sodipodi:linespacing="125%"><tspan
           sodipodi:role="line"
           id="tspan8742-7"
           x="259.99368"
           y="1045.608">use \textbf{\color{oldgold} vector graphics}</tspan></text>
<text
         xml:space="preserve"
         style="font-size:24.88888931px;font-style:normal;font-variant:normal;font-weight:normal;font-stretch:normal;text-align:center;line-height:125%;letter-spacing:0px;word-spacing:0px;writing-mode:lr-tb;text-anchor:middle;fill:#000000;fill-opacity:1;stroke:none;font-family:Times New Roman;-inkscape-font-specification:'Times New Roman,'"
         x="1224.1088"
         y="925.60803"
         id="text8740-8"
         sodipodi:linespacing="125%"><tspan
           sodipodi:role="line"
           id="tspan8742-4"
           x="1224.1088"
           y="925.60803">use \textbf{\color{newgold} LaTeX}</tspan></text>
<text
         xml:space="preserve"
         style="font-size:24.88888931px;font-style:normal;font-variant:normal;font-weight:normal;font-stretch:normal;text-align:center;line-height:125%;letter-spacing:0px;word-spacing:0px;writing-mode:lr-tb;text-anchor:middle;fill:#000000;fill-opacity:1;stroke:none;font-family:Times New Roman;-inkscape-font-specification:'Times New Roman,'"
         x="723.51764"
         y="809.55249"
         id="text8696-2"
         sodipodi:linespacing="125%"><tspan
           sodipodi:role="line"
           x="723.51764"
           y="809.55249"
           id="tspan8702-0">\parbox[c][2em][c]{1.75 in}{\centering Is it\\</tspan><tspan
           sodipodi:role="line"
           x="723.51764"
           y="840.66357"
           id="tspan9882">multiple pages?}</tspan></text>
<text
         xml:space="preserve"
         style="font-size:24.88888931px;font-style:normal;font-variant:normal;font-weight:normal;font-stretch:normal;text-align:center;line-height:125%;letter-spacing:0px;word-spacing:0px;writing-mode:lr-tb;text-anchor:middle;fill:#000000;fill-opacity:1;stroke:none;font-family:Times New Roman;-inkscape-font-specification:'Times New Roman,'"
         x="722.05927"
         y="1029.5525"
         id="text8696-9"
         sodipodi:linespacing="125%"><tspan
           sodipodi:role="line"
           x="722.05927"
           y="1029.5525"
           id="tspan9912">\parbox[c][2em][c]{1.75 in}{\centering Will you need\\</tspan><tspan
           sodipodi:role="line"
           x="722.05927"
           y="1060.6636"
           id="tspan9916">precision position control?}</tspan></text>
<text
         xml:space="preserve"
         style="font-size:24.88888931px;font-style:normal;font-variant:normal;font-weight:normal;font-stretch:normal;text-align:start;line-height:125%;letter-spacing:0px;word-spacing:0px;writing-mode:lr-tb;text-anchor:start;fill:#000000;fill-opacity:1;stroke:none;font-family:Times New Roman;-inkscape-font-specification:'Times New Roman,'"
         x="733.36469"
         y="719.49054"
         id="text8692-0"
         sodipodi:linespacing="125%"><tspan
           sodipodi:role="line"
           id="tspan8694-7"
           x="733.36469"
           y="719.49054">no</tspan></text>
<text
         xml:space="preserve"
         style="font-size:24.88888931px;font-style:normal;font-variant:normal;font-weight:normal;font-stretch:normal;text-align:start;line-height:125%;letter-spacing:0px;word-spacing:0px;writing-mode:lr-tb;text-anchor:start;fill:#000000;fill-opacity:1;stroke:none;font-family:Times New Roman;-inkscape-font-specification:'Times New Roman,'"
         x="730.9325"
         y="471.41232"
         id="text8692-1"
         sodipodi:linespacing="125%"><tspan
           sodipodi:role="line"
           id="tspan8694-3"
           x="730.9325"
           y="471.41232">no</tspan></text>
</g></g></svg>